<?xml version="1.0" standalone="no"?>
 <!DOCTYPE svg PUBLIC "-//W3C//DTD SVG 1.1//EN" 
 "http://www.w3.org/Graphics/SVG/1.1/DTD/svg11.dtd"> 
<svg
  xmlns:svg="http://www.w3.org/2000/svg"
  xmlns="http://www.w3.org/2000/svg"
  xmlns:xlink="http://www.w3.org/1999/xlink"
  version="1.1"
  width="297.0022mm" height="210.0072mm" viewBox="0.0000 0.0000 297.0022 210.0072">
<title>SVG Image created as tv-remote-F_Paste.svg date 2025/01/16 16:04:05 </title>
  <desc>Image generated by PCBNEW </desc>
<g style="fill:#000000; fill-opacity:1.0000;stroke:#000000; stroke-opacity:1.0000;
stroke-linecap:round; stroke-linejoin:round;"
 transform="translate(0 0) scale(1 1)">
<path style="fill:#000000; fill-opacity:1.0000; stroke:none;fill-rule:evenodd;"
d="M 141.8916,135.0516
141.7959,135.0326
141.7148,134.9784
141.6606,134.8973
141.6416,134.8016
141.6416,134.1016
141.6606,134.0059
141.7148,133.9248
141.7959,133.8706
141.8916,133.8516
142.7916,133.8516
142.8873,133.8706
142.9684,133.9248
143.0226,134.0059
143.0416,134.1016
143.0416,134.8016
143.0226,134.8973
142.9684,134.9784
142.8873,135.0326
142.7916,135.0516
Z" /> 
<path style="fill:#000000; fill-opacity:1.0000; stroke:none;fill-rule:evenodd;"
d="M 141.8916,133.0516
141.7959,133.0326
141.7148,132.9784
141.6606,132.8973
141.6416,132.8016
141.6416,132.1016
141.6606,132.0059
141.7148,131.9248
141.7959,131.8706
141.8916,131.8516
142.7916,131.8516
142.8873,131.8706
142.9684,131.9248
143.0226,132.0059
143.0416,132.1016
143.0416,132.8016
143.0226,132.8973
142.9684,132.9784
142.8873,133.0326
142.7916,133.0516
Z" /> 
<path style="fill:#000000; fill-opacity:1.0000; stroke:none;fill-rule:evenodd;"
d="M 132.5230,102.9225
132.5230,101.7225
133.9230,101.7225
133.9230,102.9225
Z" /> 
<path style="fill:#000000; fill-opacity:1.0000; stroke:none;fill-rule:evenodd;"
d="M 134.7230,102.9225
134.7230,101.7225
136.1230,101.7225
136.1230,102.9225
Z" /> 
<path style="fill:#000000; fill-opacity:1.0000; stroke:none;fill-rule:evenodd;"
d="M 134.7230,101.3225
134.7230,100.1225
136.1230,100.1225
136.1230,101.3225
Z" /> 
<path style="fill:#000000; fill-opacity:1.0000; stroke:none;fill-rule:evenodd;"
d="M 132.5230,101.3225
132.5230,100.1225
133.9230,100.1225
133.9230,101.3225
Z" /> 
<path style="fill:#000000; fill-opacity:1.0000; stroke:none;fill-rule:evenodd;"
d="M 116.4080,116.0200
116.3890,116.1157
116.3348,116.1968
116.2537,116.2510
116.1580,116.2700
115.4580,116.2700
115.3623,116.2510
115.2812,116.1968
115.2270,116.1157
115.2080,116.0200
115.2080,115.1200
115.2270,115.0243
115.2812,114.9432
115.3623,114.8890
115.4580,114.8700
116.1580,114.8700
116.2537,114.8890
116.3348,114.9432
116.3890,115.0243
116.4080,115.1200
Z" /> 
<path style="fill:#000000; fill-opacity:1.0000; stroke:none;fill-rule:evenodd;"
d="M 114.4080,116.0200
114.3890,116.1157
114.3348,116.1968
114.2537,116.2510
114.1580,116.2700
113.4580,116.2700
113.3623,116.2510
113.2812,116.1968
113.2270,116.1157
113.2080,116.0200
113.2080,115.1200
113.2270,115.0243
113.2812,114.9432
113.3623,114.8890
113.4580,114.8700
114.1580,114.8700
114.2537,114.8890
114.3348,114.9432
114.3890,115.0243
114.4080,115.1200
Z" /> 
<path style="fill:#000000; fill-opacity:1.0000; stroke:none;fill-rule:evenodd;"
d="M 151.2092,132.4191
151.1911,132.5100
151.1396,132.5870
151.0626,132.6385
150.9717,132.6566
150.3717,132.6566
150.2808,132.6385
150.2038,132.5870
150.1523,132.5100
150.1342,132.4191
150.1342,131.9441
150.1523,131.8532
150.2038,131.7762
150.2808,131.7247
150.3717,131.7066
150.9717,131.7066
151.0626,131.7247
151.1396,131.7762
151.1911,131.8532
151.2092,131.9441
Z" /> 
<path style="fill:#000000; fill-opacity:1.0000; stroke:none;fill-rule:evenodd;"
d="M 149.4842,132.4191
149.4661,132.5100
149.4146,132.5870
149.3376,132.6385
149.2467,132.6566
148.6467,132.6566
148.5558,132.6385
148.4788,132.5870
148.4273,132.5100
148.4092,132.4191
148.4092,131.9441
148.4273,131.8532
148.4788,131.7762
148.5558,131.7247
148.6467,131.7066
149.2467,131.7066
149.3376,131.7247
149.4146,131.7762
149.4661,131.8532
149.4842,131.9441
Z" /> 
<path style="fill:#000000; fill-opacity:1.0000; stroke:none;fill-rule:evenodd;"
d="M 138.3970,50.0640
138.4927,50.0830
138.5738,50.1372
138.6280,50.2183
138.6470,50.3140
138.6470,50.9890
138.6280,51.0847
138.5738,51.1658
138.4927,51.2200
138.3970,51.2390
137.4470,51.2390
137.3513,51.2200
137.2702,51.1658
137.2160,51.0847
137.1970,50.9890
137.1970,50.3140
137.2160,50.2183
137.2702,50.1372
137.3513,50.0830
137.4470,50.0640
Z" /> 
<path style="fill:#000000; fill-opacity:1.0000; stroke:none;fill-rule:evenodd;"
d="M 138.3970,52.1390
138.4927,52.1580
138.5738,52.2122
138.6280,52.2933
138.6470,52.3890
138.6470,53.0640
138.6280,53.1597
138.5738,53.2408
138.4927,53.2950
138.3970,53.3140
137.4470,53.3140
137.3513,53.2950
137.2702,53.2408
137.2160,53.1597
137.1970,53.0640
137.1970,52.3890
137.2160,52.2933
137.2702,52.2122
137.3513,52.1580
137.4470,52.1390
Z" /> 
<path style="fill:#000000; fill-opacity:1.0000; stroke:none;fill-rule:evenodd;"
d="M 129.5432,134.5412
129.5432,133.4412
130.1432,133.4412
130.1432,134.5412
Z" /> 
<path style="fill:#000000; fill-opacity:1.0000; stroke:none;fill-rule:evenodd;"
d="M 135.9432,134.5412
135.9432,133.4412
136.5432,133.4412
136.5432,134.5412
Z" /> 
<path style="fill:#000000; fill-opacity:1.0000; stroke:none;fill-rule:evenodd;"
d="M 130.3432,134.5412
130.3432,133.4412
130.9432,133.4412
130.9432,134.5412
Z" /> 
<path style="fill:#000000; fill-opacity:1.0000; stroke:none;fill-rule:evenodd;"
d="M 135.1432,134.5412
135.1432,133.4412
135.7432,133.4412
135.7432,134.5412
Z" /> 
<path style="fill:#000000; fill-opacity:1.0000; stroke:none;fill-rule:evenodd;"
d="M 131.6432,134.5412
131.6432,133.4412
131.9432,133.4412
131.9432,134.5412
Z" /> 
<path style="fill:#000000; fill-opacity:1.0000; stroke:none;fill-rule:evenodd;"
d="M 132.6432,134.5412
132.6432,133.4412
132.9432,133.4412
132.9432,134.5412
Z" /> 
<path style="fill:#000000; fill-opacity:1.0000; stroke:none;fill-rule:evenodd;"
d="M 133.1432,134.5412
133.1432,133.4412
133.4432,133.4412
133.4432,134.5412
Z" /> 
<path style="fill:#000000; fill-opacity:1.0000; stroke:none;fill-rule:evenodd;"
d="M 134.1432,134.5412
134.1432,133.4412
134.4432,133.4412
134.4432,134.5412
Z" /> 
<path style="fill:#000000; fill-opacity:1.0000; stroke:none;fill-rule:evenodd;"
d="M 134.6432,134.5412
134.6432,133.4412
134.9432,133.4412
134.9432,134.5412
Z" /> 
<path style="fill:#000000; fill-opacity:1.0000; stroke:none;fill-rule:evenodd;"
d="M 133.6432,134.5412
133.6432,133.4412
133.9432,133.4412
133.9432,134.5412
Z" /> 
<path style="fill:#000000; fill-opacity:1.0000; stroke:none;fill-rule:evenodd;"
d="M 132.1432,134.5412
132.1432,133.4412
132.4432,133.4412
132.4432,134.5412
Z" /> 
<path style="fill:#000000; fill-opacity:1.0000; stroke:none;fill-rule:evenodd;"
d="M 131.1432,134.5412
131.1432,133.4412
131.4432,133.4412
131.4432,134.5412
Z" /> 
<path style="fill:#000000; fill-opacity:1.0000; stroke:none;fill-rule:evenodd;"
d="M 134.1285,120.4095
134.0376,120.3914
133.9606,120.3399
133.9091,120.2629
133.8910,120.1720
133.8910,119.5720
133.9091,119.4811
133.9606,119.4041
134.0376,119.3526
134.1285,119.3345
134.6035,119.3345
134.6944,119.3526
134.7714,119.4041
134.8229,119.4811
134.8410,119.5720
134.8410,120.1720
134.8229,120.2629
134.7714,120.3399
134.6944,120.3914
134.6035,120.4095
Z" /> 
<path style="fill:#000000; fill-opacity:1.0000; stroke:none;fill-rule:evenodd;"
d="M 134.1285,118.6845
134.0376,118.6664
133.9606,118.6149
133.9091,118.5379
133.8910,118.4470
133.8910,117.8470
133.9091,117.7561
133.9606,117.6791
134.0376,117.6276
134.1285,117.6095
134.6035,117.6095
134.6944,117.6276
134.7714,117.6791
134.8229,117.7561
134.8410,117.8470
134.8410,118.4470
134.8229,118.5379
134.7714,118.6149
134.6944,118.6664
134.6035,118.6845
Z" /> 
<path style="fill:#000000; fill-opacity:1.0000; stroke:none;fill-rule:evenodd;"
d="M 140.3860,124.2745
140.4050,124.1788
140.4592,124.0977
140.5403,124.0435
140.6360,124.0245
141.3360,124.0245
141.4317,124.0435
141.5128,124.0977
141.5670,124.1788
141.5860,124.2745
141.5860,125.1745
141.5670,125.2702
141.5128,125.3513
141.4317,125.4055
141.3360,125.4245
140.6360,125.4245
140.5403,125.4055
140.4592,125.3513
140.4050,125.2702
140.3860,125.1745
Z" /> 
<path style="fill:#000000; fill-opacity:1.0000; stroke:none;fill-rule:evenodd;"
d="M 142.3860,124.2745
142.4050,124.1788
142.4592,124.0977
142.5403,124.0435
142.6360,124.0245
143.3360,124.0245
143.4317,124.0435
143.5128,124.0977
143.5670,124.1788
143.5860,124.2745
143.5860,125.1745
143.5670,125.2702
143.5128,125.3513
143.4317,125.4055
143.3360,125.4245
142.6360,125.4245
142.5403,125.4055
142.4592,125.3513
142.4050,125.2702
142.3860,125.1745
Z" /> 
<path style="fill:#000000; fill-opacity:1.0000; stroke:none;fill-rule:evenodd;"
d="M 131.3015,100.0465
131.3924,100.0646
131.4694,100.1161
131.5209,100.1931
131.5390,100.2840
131.5390,100.8840
131.5209,100.9749
131.4694,101.0519
131.3924,101.1034
131.3015,101.1215
130.8265,101.1215
130.7356,101.1034
130.6586,101.0519
130.6071,100.9749
130.5890,100.8840
130.5890,100.2840
130.6071,100.1931
130.6586,100.1161
130.7356,100.0646
130.8265,100.0465
Z" /> 
<path style="fill:#000000; fill-opacity:1.0000; stroke:none;fill-rule:evenodd;"
d="M 131.3015,101.7715
131.3924,101.7896
131.4694,101.8411
131.5209,101.9181
131.5390,102.0090
131.5390,102.6090
131.5209,102.6999
131.4694,102.7769
131.3924,102.8284
131.3015,102.8465
130.8265,102.8465
130.7356,102.8284
130.6586,102.7769
130.6071,102.6999
130.5890,102.6090
130.5890,102.0090
130.6071,101.9181
130.6586,101.8411
130.7356,101.7896
130.8265,101.7715
Z" /> 
<path style="fill:#000000; fill-opacity:1.0000; stroke:none;fill-rule:evenodd;"
d="M 142.1041,138.9664
142.0132,138.9483
141.9362,138.8968
141.8847,138.8198
141.8666,138.7289
141.8666,138.1539
141.8847,138.0630
141.9362,137.9860
142.0132,137.9345
142.1041,137.9164
142.5791,137.9164
142.6700,137.9345
142.7470,137.9860
142.7985,138.0630
142.8166,138.1539
142.8166,138.7289
142.7985,138.8198
142.7470,138.8968
142.6700,138.9483
142.5791,138.9664
Z" /> 
<path style="fill:#000000; fill-opacity:1.0000; stroke:none;fill-rule:evenodd;"
d="M 142.1041,137.2164
142.0132,137.1983
141.9362,137.1468
141.8847,137.0698
141.8666,136.9789
141.8666,136.4039
141.8847,136.3130
141.9362,136.2360
142.0132,136.1845
142.1041,136.1664
142.5791,136.1664
142.6700,136.1845
142.7470,136.2360
142.7985,136.3130
142.8166,136.4039
142.8166,136.9789
142.7985,137.0698
142.7470,137.1468
142.6700,137.1983
142.5791,137.2164
Z" /> 
<path style="fill:#000000; fill-opacity:1.0000; stroke:none;fill-rule:evenodd;"
d="M 132.0965,123.3540
132.0056,123.3359
131.9286,123.2844
131.8771,123.2074
131.8590,123.1165
131.8590,122.6165
131.8771,122.5256
131.9286,122.4486
132.0056,122.3971
132.0965,122.3790
132.5715,122.3790
132.6624,122.3971
132.7394,122.4486
132.7909,122.5256
132.8090,122.6165
132.8090,123.1165
132.7909,123.2074
132.7394,123.2844
132.6624,123.3359
132.5715,123.3540
Z" /> 
<path style="fill:#000000; fill-opacity:1.0000; stroke:none;fill-rule:evenodd;"
d="M 132.0965,121.5290
132.0056,121.5109
131.9286,121.4594
131.8771,121.3824
131.8590,121.2915
131.8590,120.7915
131.8771,120.7006
131.9286,120.6236
132.0056,120.5721
132.0965,120.5540
132.5715,120.5540
132.6624,120.5721
132.7394,120.6236
132.7909,120.7006
132.8090,120.7915
132.8090,121.2915
132.7909,121.3824
132.7394,121.4594
132.6624,121.5109
132.5715,121.5290
Z" /> 
<path style="fill:#000000; fill-opacity:1.0000; stroke:none;fill-rule:evenodd;"
d="M 115.4930,125.8160
115.3860,125.8004
115.2751,125.7462
115.1878,125.6589
115.1336,125.5480
115.1180,125.4410
115.1180,124.1910
115.1336,124.0840
115.1878,123.9731
115.2751,123.8858
115.3860,123.8316
115.4930,123.8160
116.2430,123.8160
116.3500,123.8316
116.4609,123.8858
116.5482,123.9731
116.6024,124.0840
116.6180,124.1910
116.6180,125.4410
116.6024,125.5480
116.5482,125.6589
116.4609,125.7462
116.3500,125.8004
116.2430,125.8160
Z" /> 
<path style="fill:#000000; fill-opacity:1.0000; stroke:none;fill-rule:evenodd;"
d="M 117.7930,125.8160
117.6860,125.8004
117.5751,125.7462
117.4878,125.6589
117.4336,125.5480
117.4180,125.4410
117.4180,124.1910
117.4336,124.0840
117.4878,123.9731
117.5751,123.8858
117.6860,123.8316
117.7930,123.8160
118.5430,123.8160
118.6500,123.8316
118.7609,123.8858
118.8482,123.9731
118.9024,124.0840
118.9180,124.1910
118.9180,125.4410
118.9024,125.5480
118.8482,125.6589
118.7609,125.7462
118.6500,125.8004
118.5430,125.8160
Z" /> 
<path style="fill:#000000; fill-opacity:1.0000; stroke:none;fill-rule:evenodd;"
d="M 116.7680,119.5160
116.6617,119.5046
116.5284,119.4548
116.4144,119.3696
116.3292,119.2556
116.2794,119.1223
116.2680,119.0160
116.2680,118.0160
116.2794,117.9097
116.3292,117.7764
116.4144,117.6624
116.5284,117.5772
116.6617,117.5274
116.7680,117.5160
119.5680,117.5160
119.6743,117.5274
119.8076,117.5772
119.9216,117.6624
120.0068,117.7764
120.0566,117.9097
120.0680,118.0160
120.0680,119.0160
120.0566,119.1223
120.0068,119.2556
119.9216,119.3696
119.8076,119.4548
119.6743,119.5046
119.5680,119.5160
Z" /> 
<path style="fill:#000000; fill-opacity:1.0000; stroke:none;fill-rule:evenodd;"
d="M 120.0930,125.8160
119.9860,125.8004
119.8751,125.7462
119.7878,125.6589
119.7336,125.5480
119.7180,125.4410
119.7180,124.1910
119.7336,124.0840
119.7878,123.9731
119.8751,123.8858
119.9860,123.8316
120.0930,123.8160
120.8430,123.8160
120.9500,123.8316
121.0609,123.8858
121.1482,123.9731
121.2024,124.0840
121.2180,124.1910
121.2180,125.4410
121.2024,125.5480
121.1482,125.6589
121.0609,125.7462
120.9500,125.8004
120.8430,125.8160
Z" /> 
<path style="fill:#000000; fill-opacity:1.0000; stroke:none;fill-rule:evenodd;"
d="M 138.5060,55.0600
138.4870,55.1557
138.4328,55.2368
138.3517,55.2910
138.2560,55.3100
137.5560,55.3100
137.4603,55.2910
137.3792,55.2368
137.3250,55.1557
137.3060,55.0600
137.3060,54.1600
137.3250,54.0643
137.3792,53.9832
137.4603,53.9290
137.5560,53.9100
138.2560,53.9100
138.3517,53.9290
138.4328,53.9832
138.4870,54.0643
138.5060,54.1600
Z" /> 
<path style="fill:#000000; fill-opacity:1.0000; stroke:none;fill-rule:evenodd;"
d="M 136.5060,55.0600
136.4870,55.1557
136.4328,55.2368
136.3517,55.2910
136.2560,55.3100
135.5560,55.3100
135.4603,55.2910
135.3792,55.2368
135.3250,55.1557
135.3060,55.0600
135.3060,54.1600
135.3250,54.0643
135.3792,53.9832
135.4603,53.9290
135.5560,53.9100
136.2560,53.9100
136.3517,53.9290
136.4328,53.9832
136.4870,54.0643
136.5060,54.1600
Z" /> 
<path style="fill:#000000; fill-opacity:1.0000; stroke:none;fill-rule:evenodd;"
d="M 130.3185,123.3540
130.2276,123.3359
130.1506,123.2844
130.0991,123.2074
130.0810,123.1165
130.0810,122.6165
130.0991,122.5256
130.1506,122.4486
130.2276,122.3971
130.3185,122.3790
130.7935,122.3790
130.8844,122.3971
130.9614,122.4486
131.0129,122.5256
131.0310,122.6165
131.0310,123.1165
131.0129,123.2074
130.9614,123.2844
130.8844,123.3359
130.7935,123.3540
Z" /> 
<path style="fill:#000000; fill-opacity:1.0000; stroke:none;fill-rule:evenodd;"
d="M 130.3185,121.5290
130.2276,121.5109
130.1506,121.4594
130.0991,121.3824
130.0810,121.2915
130.0810,120.7915
130.0991,120.7006
130.1506,120.6236
130.2276,120.5721
130.3185,120.5540
130.7935,120.5540
130.8844,120.5721
130.9614,120.6236
131.0129,120.7006
131.0310,120.7915
131.0310,121.2915
131.0129,121.3824
130.9614,121.4594
130.8844,121.5109
130.7935,121.5290
Z" /> 
<path style="fill:#000000; fill-opacity:1.0000; stroke:none;fill-rule:evenodd;"
d="M 115.8075,110.4870
115.8984,110.5051
115.9754,110.5566
116.0269,110.6336
116.0450,110.7245
116.0450,111.2995
116.0269,111.3904
115.9754,111.4674
115.8984,111.5189
115.8075,111.5370
115.3325,111.5370
115.2416,111.5189
115.1646,111.4674
115.1131,111.3904
115.0950,111.2995
115.0950,110.7245
115.1131,110.6336
115.1646,110.5566
115.2416,110.5051
115.3325,110.4870
Z" /> 
<path style="fill:#000000; fill-opacity:1.0000; stroke:none;fill-rule:evenodd;"
d="M 115.8075,112.2370
115.8984,112.2551
115.9754,112.3066
116.0269,112.3836
116.0450,112.4745
116.0450,113.0495
116.0269,113.1404
115.9754,113.2174
115.8984,113.2689
115.8075,113.2870
115.3325,113.2870
115.2416,113.2689
115.1646,113.2174
115.1131,113.1404
115.0950,113.0495
115.0950,112.4745
115.1131,112.3836
115.1646,112.3066
115.2416,112.2551
115.3325,112.2370
Z" /> 
<path style="fill:#000000; fill-opacity:1.0000; stroke:none;fill-rule:evenodd;"
d="M 137.5380,114.3165
137.5561,114.2256
137.6076,114.1486
137.6846,114.0971
137.7755,114.0790
138.3755,114.0790
138.4664,114.0971
138.5434,114.1486
138.5949,114.2256
138.6130,114.3165
138.6130,114.7915
138.5949,114.8824
138.5434,114.9594
138.4664,115.0109
138.3755,115.0290
137.7755,115.0290
137.6846,115.0109
137.6076,114.9594
137.5561,114.8824
137.5380,114.7915
Z" /> 
<path style="fill:#000000; fill-opacity:1.0000; stroke:none;fill-rule:evenodd;"
d="M 139.2630,114.3165
139.2811,114.2256
139.3326,114.1486
139.4096,114.0971
139.5005,114.0790
140.1005,114.0790
140.1914,114.0971
140.2684,114.1486
140.3199,114.2256
140.3380,114.3165
140.3380,114.7915
140.3199,114.8824
140.2684,114.9594
140.1914,115.0109
140.1005,115.0290
139.5005,115.0290
139.4096,115.0109
139.3326,114.9594
139.2811,114.8824
139.2630,114.7915
Z" /> 
<path style="fill:#000000; fill-opacity:1.0000; stroke:none;fill-rule:evenodd;"
d="M 153.9930,129.5148
154.0887,129.5338
154.1698,129.5880
154.2240,129.6691
154.2430,129.7648
154.2430,130.4648
154.2240,130.5605
154.1698,130.6416
154.0887,130.6958
153.9930,130.7148
153.0930,130.7148
152.9973,130.6958
152.9162,130.6416
152.8620,130.5605
152.8430,130.4648
152.8430,129.7648
152.8620,129.6691
152.9162,129.5880
152.9973,129.5338
153.0930,129.5148
Z" /> 
<path style="fill:#000000; fill-opacity:1.0000; stroke:none;fill-rule:evenodd;"
d="M 153.9930,131.5148
154.0887,131.5338
154.1698,131.5880
154.2240,131.6691
154.2430,131.7648
154.2430,132.4648
154.2240,132.5605
154.1698,132.6416
154.0887,132.6958
153.9930,132.7148
153.0930,132.7148
152.9973,132.6958
152.9162,132.6416
152.8620,132.5605
152.8430,132.4648
152.8430,131.7648
152.8620,131.6691
152.9162,131.5880
152.9973,131.5338
153.0930,131.5148
Z" /> 
<path style="fill:#000000; fill-opacity:1.0000; stroke:none;fill-rule:evenodd;"
d="M 137.4305,102.8465
137.3396,102.8284
137.2626,102.7769
137.2111,102.6999
137.1930,102.6090
137.1930,102.0090
137.2111,101.9181
137.2626,101.8411
137.3396,101.7896
137.4305,101.7715
137.9055,101.7715
137.9964,101.7896
138.0734,101.8411
138.1249,101.9181
138.1430,102.0090
138.1430,102.6090
138.1249,102.6999
138.0734,102.7769
137.9964,102.8284
137.9055,102.8465
Z" /> 
<path style="fill:#000000; fill-opacity:1.0000; stroke:none;fill-rule:evenodd;"
d="M 137.4305,101.1215
137.3396,101.1034
137.2626,101.0519
137.2111,100.9749
137.1930,100.8840
137.1930,100.2840
137.2111,100.1931
137.2626,100.1161
137.3396,100.0646
137.4305,100.0465
137.9055,100.0465
137.9964,100.0646
138.0734,100.1161
138.1249,100.1931
138.1430,100.2840
138.1430,100.8840
138.1249,100.9749
138.0734,101.0519
137.9964,101.1034
137.9055,101.1215
Z" /> 
<path style="fill:#000000; fill-opacity:1.0000; stroke:none;fill-rule:evenodd;"
d="M 143.6200,128.6675
143.6381,128.5766
143.6896,128.4996
143.7666,128.4481
143.8575,128.4300
144.4325,128.4300
144.5234,128.4481
144.6004,128.4996
144.6519,128.5766
144.6700,128.6675
144.6700,129.1425
144.6519,129.2334
144.6004,129.3104
144.5234,129.3619
144.4325,129.3800
143.8575,129.3800
143.7666,129.3619
143.6896,129.3104
143.6381,129.2334
143.6200,129.1425
Z" /> 
<path style="fill:#000000; fill-opacity:1.0000; stroke:none;fill-rule:evenodd;"
d="M 145.3700,128.6675
145.3881,128.5766
145.4396,128.4996
145.5166,128.4481
145.6075,128.4300
146.1825,128.4300
146.2734,128.4481
146.3504,128.4996
146.4019,128.5766
146.4200,128.6675
146.4200,129.1425
146.4019,129.2334
146.3504,129.3104
146.2734,129.3619
146.1825,129.3800
145.6075,129.3800
145.5166,129.3619
145.4396,129.3104
145.3881,129.2334
145.3700,129.1425
Z" /> 
<path style="fill:#000000; fill-opacity:1.0000; stroke:none;fill-rule:evenodd;"
d="M 132.9525,116.6940
133.0434,116.7121
133.1204,116.7636
133.1719,116.8406
133.1900,116.9315
133.1900,117.5315
133.1719,117.6224
133.1204,117.6994
133.0434,117.7509
132.9525,117.7690
132.4775,117.7690
132.3866,117.7509
132.3096,117.6994
132.2581,117.6224
132.2400,117.5315
132.2400,116.9315
132.2581,116.8406
132.3096,116.7636
132.3866,116.7121
132.4775,116.6940
Z" /> 
<path style="fill:#000000; fill-opacity:1.0000; stroke:none;fill-rule:evenodd;"
d="M 132.9525,118.4190
133.0434,118.4371
133.1204,118.4886
133.1719,118.5656
133.1900,118.6565
133.1900,119.2565
133.1719,119.3474
133.1204,119.4244
133.0434,119.4759
132.9525,119.4940
132.4775,119.4940
132.3866,119.4759
132.3096,119.4244
132.2581,119.3474
132.2400,119.2565
132.2400,118.6565
132.2581,118.5656
132.3096,118.4886
132.3866,118.4371
132.4775,118.4190
Z" /> 
<path style="fill:#000000; fill-opacity:1.0000; stroke:none;fill-rule:evenodd;"
d="M 136.8895,120.0120
136.9804,120.0301
137.0574,120.0816
137.1089,120.1586
137.1270,120.2495
137.1270,120.8495
137.1089,120.9404
137.0574,121.0174
136.9804,121.0689
136.8895,121.0870
136.4145,121.0870
136.3236,121.0689
136.2466,121.0174
136.1951,120.9404
136.1770,120.8495
136.1770,120.2495
136.1951,120.1586
136.2466,120.0816
136.3236,120.0301
136.4145,120.0120
Z" /> 
<path style="fill:#000000; fill-opacity:1.0000; stroke:none;fill-rule:evenodd;"
d="M 136.8895,121.7370
136.9804,121.7551
137.0574,121.8066
137.1089,121.8836
137.1270,121.9745
137.1270,122.5745
137.1089,122.6654
137.0574,122.7424
136.9804,122.7939
136.8895,122.8120
136.4145,122.8120
136.3236,122.7939
136.2466,122.7424
136.1951,122.6654
136.1770,122.5745
136.1770,121.9745
136.1951,121.8836
136.2466,121.8066
136.3236,121.7551
136.4145,121.7370
Z" /> 
<path style="fill:#000000; fill-opacity:1.0000; stroke:none;fill-rule:evenodd;"
d="M 137.5380,110.3900
137.5561,110.2991
137.6076,110.2221
137.6846,110.1706
137.7755,110.1525
138.3755,110.1525
138.4664,110.1706
138.5434,110.2221
138.5949,110.2991
138.6130,110.3900
138.6130,110.8650
138.5949,110.9559
138.5434,111.0329
138.4664,111.0844
138.3755,111.1025
137.7755,111.1025
137.6846,111.0844
137.6076,111.0329
137.5561,110.9559
137.5380,110.8650
Z" /> 
<path style="fill:#000000; fill-opacity:1.0000; stroke:none;fill-rule:evenodd;"
d="M 139.2630,110.3900
139.2811,110.2991
139.3326,110.2221
139.4096,110.1706
139.5005,110.1525
140.1005,110.1525
140.1914,110.1706
140.2684,110.2221
140.3199,110.2991
140.3380,110.3900
140.3380,110.8650
140.3199,110.9559
140.2684,111.0329
140.1914,111.0844
140.1005,111.1025
139.5005,111.1025
139.4096,111.0844
139.3326,111.0329
139.2811,110.9559
139.2630,110.8650
Z" /> 
<path style="fill:#000000; fill-opacity:1.0000; stroke:none;fill-rule:evenodd;"
d="M 128.5075,43.0500
128.5984,43.0681
128.6754,43.1196
128.7269,43.1966
128.7450,43.2875
128.7450,43.8625
128.7269,43.9534
128.6754,44.0304
128.5984,44.0819
128.5075,44.1000
128.0325,44.1000
127.9416,44.0819
127.8646,44.0304
127.8131,43.9534
127.7950,43.8625
127.7950,43.2875
127.8131,43.1966
127.8646,43.1196
127.9416,43.0681
128.0325,43.0500
Z" /> 
<path style="fill:#000000; fill-opacity:1.0000; stroke:none;fill-rule:evenodd;"
d="M 128.5075,44.8000
128.5984,44.8181
128.6754,44.8696
128.7269,44.9466
128.7450,45.0375
128.7450,45.6125
128.7269,45.7034
128.6754,45.7804
128.5984,45.8319
128.5075,45.8500
128.0325,45.8500
127.9416,45.8319
127.8646,45.7804
127.8131,45.7034
127.7950,45.6125
127.7950,45.0375
127.8131,44.9466
127.8646,44.8696
127.9416,44.8181
128.0325,44.8000
Z" /> 
<path style="fill:#000000; fill-opacity:1.0000; stroke:none;fill-rule:evenodd;"
d="M 113.4800,125.5270
113.5757,125.5460
113.6568,125.6002
113.7110,125.6813
113.7300,125.7770
113.7300,126.4770
113.7110,126.5727
113.6568,126.6538
113.5757,126.7080
113.4800,126.7270
112.5800,126.7270
112.4843,126.7080
112.4032,126.6538
112.3490,126.5727
112.3300,126.4770
112.3300,125.7770
112.3490,125.6813
112.4032,125.6002
112.4843,125.5460
112.5800,125.5270
Z" /> 
<path style="fill:#000000; fill-opacity:1.0000; stroke:none;fill-rule:evenodd;"
d="M 113.4800,127.5270
113.5757,127.5460
113.6568,127.6002
113.7110,127.6813
113.7300,127.7770
113.7300,128.4770
113.7110,128.5727
113.6568,128.6538
113.5757,128.7080
113.4800,128.7270
112.5800,128.7270
112.4843,128.7080
112.4032,128.6538
112.3490,128.5727
112.3300,128.4770
112.3300,127.7770
112.3490,127.6813
112.4032,127.6002
112.4843,127.5460
112.5800,127.5270
Z" /> 
<path style="fill:#000000; fill-opacity:1.0000; stroke:none;fill-rule:evenodd;"
d="M 143.3985,122.0885
143.3795,122.1842
143.3253,122.2653
143.2442,122.3195
143.1485,122.3385
142.2785,122.3385
142.1828,122.3195
142.1017,122.2653
142.0475,122.1842
142.0285,122.0885
142.0285,120.9785
142.0475,120.8828
142.1017,120.8017
142.1828,120.7475
142.2785,120.7285
143.1485,120.7285
143.2442,120.7475
143.3253,120.8017
143.3795,120.8828
143.3985,120.9785
Z" /> 
<path style="fill:#000000; fill-opacity:1.0000; stroke:none;fill-rule:evenodd;"
d="M 143.3985,120.0885
143.3795,120.1842
143.3253,120.2653
143.2442,120.3195
143.1485,120.3385
142.2785,120.3385
142.1828,120.3195
142.1017,120.2653
142.0475,120.1842
142.0285,120.0885
142.0285,118.9785
142.0475,118.8828
142.1017,118.8017
142.1828,118.7475
142.2785,118.7285
143.1485,118.7285
143.2442,118.7475
143.3253,118.8017
143.3795,118.8828
143.3985,118.9785
Z" /> 
<path style="fill:#000000; fill-opacity:1.0000; stroke:none;fill-rule:evenodd;"
d="M 141.6985,122.0885
141.6795,122.1842
141.6253,122.2653
141.5442,122.3195
141.4485,122.3385
140.5785,122.3385
140.4828,122.3195
140.4017,122.2653
140.3475,122.1842
140.3285,122.0885
140.3285,120.9785
140.3475,120.8828
140.4017,120.8017
140.4828,120.7475
140.5785,120.7285
141.4485,120.7285
141.5442,120.7475
141.6253,120.8017
141.6795,120.8828
141.6985,120.9785
Z" /> 
<path style="fill:#000000; fill-opacity:1.0000; stroke:none;fill-rule:evenodd;"
d="M 141.6985,120.0885
141.6795,120.1842
141.6253,120.2653
141.5442,120.3195
141.4485,120.3385
140.5785,120.3385
140.4828,120.3195
140.4017,120.2653
140.3475,120.1842
140.3285,120.0885
140.3285,118.9785
140.3475,118.8828
140.4017,118.8017
140.4828,118.7475
140.5785,118.7285
141.4485,118.7285
141.5442,118.7475
141.6253,118.8017
141.6795,118.8828
141.6985,118.9785
Z" /> 
<path style="fill:#000000; fill-opacity:1.0000; stroke:none;fill-rule:evenodd;"
d="M 144.9135,122.5635
144.9040,122.6113
144.8769,122.6519
144.8363,122.6790
144.7885,122.6885
144.2635,122.6885
144.2157,122.6790
144.1751,122.6519
144.1480,122.6113
144.1385,122.5635
144.1385,122.3135
144.1480,122.2657
144.1751,122.2251
144.2157,122.1980
144.2635,122.1885
144.7885,122.1885
144.8363,122.1980
144.8769,122.2251
144.9040,122.2657
144.9135,122.3135
Z" /> 
<path style="fill:#000000; fill-opacity:1.0000; stroke:none;fill-rule:evenodd;"
d="M 144.9135,121.2935
144.9040,121.3413
144.8769,121.3819
144.8363,121.4090
144.7885,121.4185
144.2635,121.4185
144.2157,121.4090
144.1751,121.3819
144.1480,121.3413
144.1385,121.2935
144.1385,121.0435
144.1480,120.9957
144.1751,120.9551
144.2157,120.9280
144.2635,120.9185
144.7885,120.9185
144.8363,120.9280
144.8769,120.9551
144.9040,120.9957
144.9135,121.0435
Z" /> 
<path style="fill:#000000; fill-opacity:1.0000; stroke:none;fill-rule:evenodd;"
d="M 144.9135,120.0235
144.9040,120.0713
144.8769,120.1119
144.8363,120.1390
144.7885,120.1485
144.2635,120.1485
144.2157,120.1390
144.1751,120.1119
144.1480,120.0713
144.1385,120.0235
144.1385,119.7735
144.1480,119.7257
144.1751,119.6851
144.2157,119.6580
144.2635,119.6485
144.7885,119.6485
144.8363,119.6580
144.8769,119.6851
144.9040,119.7257
144.9135,119.7735
Z" /> 
<path style="fill:#000000; fill-opacity:1.0000; stroke:none;fill-rule:evenodd;"
d="M 144.9135,118.7535
144.9040,118.8013
144.8769,118.8419
144.8363,118.8690
144.7885,118.8785
144.2635,118.8785
144.2157,118.8690
144.1751,118.8419
144.1480,118.8013
144.1385,118.7535
144.1385,118.5035
144.1480,118.4557
144.1751,118.4151
144.2157,118.3880
144.2635,118.3785
144.7885,118.3785
144.8363,118.3880
144.8769,118.4151
144.9040,118.4557
144.9135,118.5035
Z" /> 
<path style="fill:#000000; fill-opacity:1.0000; stroke:none;fill-rule:evenodd;"
d="M 139.5885,118.7535
139.5790,118.8013
139.5519,118.8419
139.5113,118.8690
139.4635,118.8785
138.9385,118.8785
138.8907,118.8690
138.8501,118.8419
138.8230,118.8013
138.8135,118.7535
138.8135,118.5035
138.8230,118.4557
138.8501,118.4151
138.8907,118.3880
138.9385,118.3785
139.4635,118.3785
139.5113,118.3880
139.5519,118.4151
139.5790,118.4557
139.5885,118.5035
Z" /> 
<path style="fill:#000000; fill-opacity:1.0000; stroke:none;fill-rule:evenodd;"
d="M 139.5885,120.0235
139.5790,120.0713
139.5519,120.1119
139.5113,120.1390
139.4635,120.1485
138.9385,120.1485
138.8907,120.1390
138.8501,120.1119
138.8230,120.0713
138.8135,120.0235
138.8135,119.7735
138.8230,119.7257
138.8501,119.6851
138.8907,119.6580
138.9385,119.6485
139.4635,119.6485
139.5113,119.6580
139.5519,119.6851
139.5790,119.7257
139.5885,119.7735
Z" /> 
<path style="fill:#000000; fill-opacity:1.0000; stroke:none;fill-rule:evenodd;"
d="M 139.5885,121.2935
139.5790,121.3413
139.5519,121.3819
139.5113,121.4090
139.4635,121.4185
138.9385,121.4185
138.8907,121.4090
138.8501,121.3819
138.8230,121.3413
138.8135,121.2935
138.8135,121.0435
138.8230,120.9957
138.8501,120.9551
138.8907,120.9280
138.9385,120.9185
139.4635,120.9185
139.5113,120.9280
139.5519,120.9551
139.5790,120.9957
139.5885,121.0435
Z" /> 
<path style="fill:#000000; fill-opacity:1.0000; stroke:none;fill-rule:evenodd;"
d="M 139.5885,122.5635
139.5790,122.6113
139.5519,122.6519
139.5113,122.6790
139.4635,122.6885
138.9385,122.6885
138.8907,122.6790
138.8501,122.6519
138.8230,122.6113
138.8135,122.5635
138.8135,122.3135
138.8230,122.2657
138.8501,122.2251
138.8907,122.1980
138.9385,122.1885
139.4635,122.1885
139.5113,122.1980
139.5519,122.2251
139.5790,122.2657
139.5885,122.3135
Z" /> 
<path style="fill:#000000; fill-opacity:1.0000; stroke:none;fill-rule:evenodd;"
d="M 127.6380,114.4210
127.6199,114.5119
127.5684,114.5889
127.4914,114.6404
127.4005,114.6585
126.8005,114.6585
126.7096,114.6404
126.6326,114.5889
126.5811,114.5119
126.5630,114.4210
126.5630,113.9460
126.5811,113.8551
126.6326,113.7781
126.7096,113.7266
126.8005,113.7085
127.4005,113.7085
127.4914,113.7266
127.5684,113.7781
127.6199,113.8551
127.6380,113.9460
Z" /> 
<path style="fill:#000000; fill-opacity:1.0000; stroke:none;fill-rule:evenodd;"
d="M 125.9130,114.4210
125.8949,114.5119
125.8434,114.5889
125.7664,114.6404
125.6755,114.6585
125.0755,114.6585
124.9846,114.6404
124.9076,114.5889
124.8561,114.5119
124.8380,114.4210
124.8380,113.9460
124.8561,113.8551
124.9076,113.7781
124.9846,113.7266
125.0755,113.7085
125.6755,113.7085
125.7664,113.7266
125.8434,113.7781
125.8949,113.8551
125.9130,113.9460
Z" /> 
<path style="fill:#000000; fill-opacity:1.0000; stroke:none;fill-rule:evenodd;"
d="M 132.7213,112.9148
132.6763,112.8630
132.6653,112.8124
132.6653,111.8166
132.6847,111.7508
132.7365,111.7058
132.7871,111.6948
133.7829,111.6948
133.8487,111.7142
133.8937,111.7660
133.9047,111.8166
133.9047,112.7115
133.8853,112.7774
133.8690,112.7976
133.7681,112.8985
133.7079,112.9314
133.6820,112.9342
132.7871,112.9342
Z" /> 
<path style="fill:#000000; fill-opacity:1.0000; stroke:none;fill-rule:evenodd;"
d="M 132.7213,111.5648
132.6763,111.5130
132.6653,111.4624
132.6653,110.4666
132.6847,110.4008
132.7365,110.3558
132.7871,110.3448
133.6820,110.3448
133.7479,110.3642
133.7681,110.3805
133.8690,110.4814
133.9019,110.5416
133.9047,110.5675
133.9047,111.4624
133.8853,111.5282
133.8335,111.5732
133.7829,111.5842
132.7871,111.5842
Z" /> 
<path style="fill:#000000; fill-opacity:1.0000; stroke:none;fill-rule:evenodd;"
d="M 131.4721,112.9148
131.4519,112.8985
131.3510,112.7976
131.3181,112.7374
131.3153,112.7115
131.3153,111.8166
131.3347,111.7508
131.3865,111.7058
131.4371,111.6948
132.4329,111.6948
132.4987,111.7142
132.5437,111.7660
132.5547,111.8166
132.5547,112.8124
132.5353,112.8782
132.4835,112.9232
132.4329,112.9342
131.5380,112.9342
Z" /> 
<path style="fill:#000000; fill-opacity:1.0000; stroke:none;fill-rule:evenodd;"
d="M 131.3713,111.5648
131.3263,111.5130
131.3153,111.4624
131.3153,110.5675
131.3347,110.5016
131.3510,110.4814
131.4519,110.3805
131.5121,110.3476
131.5380,110.3448
132.4329,110.3448
132.4987,110.3642
132.5437,110.4160
132.5547,110.4666
132.5547,111.4624
132.5353,111.5282
132.4835,111.5732
132.4329,111.5842
131.4371,111.5842
Z" /> 
<path style="fill:#000000; fill-opacity:1.0000; stroke:none;fill-rule:evenodd;"
d="M 136.4850,114.2895
136.4812,114.3086
136.4704,114.3249
136.4541,114.3357
136.4350,114.3395
135.6600,114.3395
135.6409,114.3357
135.6246,114.3249
135.6138,114.3086
135.6100,114.2895
135.6100,114.1895
135.6138,114.1704
135.6246,114.1541
135.6409,114.1433
135.6600,114.1395
136.4350,114.1395
136.4541,114.1433
136.4704,114.1541
136.4812,114.1704
136.4850,114.1895
Z" /> 
<path style="fill:#000000; fill-opacity:1.0000; stroke:none;fill-rule:evenodd;"
d="M 136.4850,113.8895
136.4812,113.9086
136.4704,113.9249
136.4541,113.9357
136.4350,113.9395
135.6600,113.9395
135.6409,113.9357
135.6246,113.9249
135.6138,113.9086
135.6100,113.8895
135.6100,113.7895
135.6138,113.7704
135.6246,113.7541
135.6409,113.7433
135.6600,113.7395
136.4350,113.7395
136.4541,113.7433
136.4704,113.7541
136.4812,113.7704
136.4850,113.7895
Z" /> 
<path style="fill:#000000; fill-opacity:1.0000; stroke:none;fill-rule:evenodd;"
d="M 136.4850,113.4895
136.4812,113.5086
136.4704,113.5249
136.4541,113.5357
136.4350,113.5395
135.6600,113.5395
135.6409,113.5357
135.6246,113.5249
135.6138,113.5086
135.6100,113.4895
135.6100,113.3895
135.6138,113.3704
135.6246,113.3541
135.6409,113.3433
135.6600,113.3395
136.4350,113.3395
136.4541,113.3433
136.4704,113.3541
136.4812,113.3704
136.4850,113.3895
Z" /> 
<path style="fill:#000000; fill-opacity:1.0000; stroke:none;fill-rule:evenodd;"
d="M 136.4850,113.0895
136.4812,113.1086
136.4704,113.1249
136.4541,113.1357
136.4350,113.1395
135.6600,113.1395
135.6409,113.1357
135.6246,113.1249
135.6138,113.1086
135.6100,113.0895
135.6100,112.9895
135.6138,112.9704
135.6246,112.9541
135.6409,112.9433
135.6600,112.9395
136.4350,112.9395
136.4541,112.9433
136.4704,112.9541
136.4812,112.9704
136.4850,112.9895
Z" /> 
<path style="fill:#000000; fill-opacity:1.0000; stroke:none;fill-rule:evenodd;"
d="M 136.4850,112.6895
136.4812,112.7086
136.4704,112.7249
136.4541,112.7357
136.4350,112.7395
135.6600,112.7395
135.6409,112.7357
135.6246,112.7249
135.6138,112.7086
135.6100,112.6895
135.6100,112.5895
135.6138,112.5704
135.6246,112.5541
135.6409,112.5433
135.6600,112.5395
136.4350,112.5395
136.4541,112.5433
136.4704,112.5541
136.4812,112.5704
136.4850,112.5895
Z" /> 
<path style="fill:#000000; fill-opacity:1.0000; stroke:none;fill-rule:evenodd;"
d="M 136.4850,112.2895
136.4812,112.3086
136.4704,112.3249
136.4541,112.3357
136.4350,112.3395
135.6600,112.3395
135.6409,112.3357
135.6246,112.3249
135.6138,112.3086
135.6100,112.2895
135.6100,112.1895
135.6138,112.1704
135.6246,112.1541
135.6409,112.1433
135.6600,112.1395
136.4350,112.1395
136.4541,112.1433
136.4704,112.1541
136.4812,112.1704
136.4850,112.1895
Z" /> 
<path style="fill:#000000; fill-opacity:1.0000; stroke:none;fill-rule:evenodd;"
d="M 136.4850,111.8895
136.4812,111.9086
136.4704,111.9249
136.4541,111.9357
136.4350,111.9395
135.6600,111.9395
135.6409,111.9357
135.6246,111.9249
135.6138,111.9086
135.6100,111.8895
135.6100,111.7895
135.6138,111.7704
135.6246,111.7541
135.6409,111.7433
135.6600,111.7395
136.4350,111.7395
136.4541,111.7433
136.4704,111.7541
136.4812,111.7704
136.4850,111.7895
Z" /> 
<path style="fill:#000000; fill-opacity:1.0000; stroke:none;fill-rule:evenodd;"
d="M 136.4850,111.4895
136.4812,111.5086
136.4704,111.5249
136.4541,111.5357
136.4350,111.5395
135.6600,111.5395
135.6409,111.5357
135.6246,111.5249
135.6138,111.5086
135.6100,111.4895
135.6100,111.3895
135.6138,111.3704
135.6246,111.3541
135.6409,111.3433
135.6600,111.3395
136.4350,111.3395
136.4541,111.3433
136.4704,111.3541
136.4812,111.3704
136.4850,111.3895
Z" /> 
<path style="fill:#000000; fill-opacity:1.0000; stroke:none;fill-rule:evenodd;"
d="M 136.4850,111.0895
136.4812,111.1086
136.4704,111.1249
136.4541,111.1357
136.4350,111.1395
135.6600,111.1395
135.6409,111.1357
135.6246,111.1249
135.6138,111.1086
135.6100,111.0895
135.6100,110.9895
135.6138,110.9704
135.6246,110.9541
135.6409,110.9433
135.6600,110.9395
136.4350,110.9395
136.4541,110.9433
136.4704,110.9541
136.4812,110.9704
136.4850,110.9895
Z" /> 
<path style="fill:#000000; fill-opacity:1.0000; stroke:none;fill-rule:evenodd;"
d="M 136.4850,110.6895
136.4812,110.7086
136.4704,110.7249
136.4541,110.7357
136.4350,110.7395
135.6600,110.7395
135.6409,110.7357
135.6246,110.7249
135.6138,110.7086
135.6100,110.6895
135.6100,110.5895
135.6138,110.5704
135.6246,110.5541
135.6409,110.5433
135.6600,110.5395
136.4350,110.5395
136.4541,110.5433
136.4704,110.5541
136.4812,110.5704
136.4850,110.5895
Z" /> 
<path style="fill:#000000; fill-opacity:1.0000; stroke:none;fill-rule:evenodd;"
d="M 136.4850,110.2895
136.4812,110.3086
136.4704,110.3249
136.4541,110.3357
136.4350,110.3395
135.6600,110.3395
135.6409,110.3357
135.6246,110.3249
135.6138,110.3086
135.6100,110.2895
135.6100,110.1895
135.6138,110.1704
135.6246,110.1541
135.6409,110.1433
135.6600,110.1395
136.4350,110.1395
136.4541,110.1433
136.4704,110.1541
136.4812,110.1704
136.4850,110.1895
Z" /> 
<path style="fill:#000000; fill-opacity:1.0000; stroke:none;fill-rule:evenodd;"
d="M 136.4850,109.8895
136.4812,109.9086
136.4704,109.9249
136.4541,109.9357
136.4350,109.9395
135.6600,109.9395
135.6409,109.9357
135.6246,109.9249
135.6138,109.9086
135.6100,109.8895
135.6100,109.7895
135.6138,109.7704
135.6246,109.7541
135.6409,109.7433
135.6600,109.7395
136.4350,109.7395
136.4541,109.7433
136.4704,109.7541
136.4812,109.7704
136.4850,109.7895
Z" /> 
<path style="fill:#000000; fill-opacity:1.0000; stroke:none;fill-rule:evenodd;"
d="M 136.4850,109.4895
136.4812,109.5086
136.4704,109.5249
136.4541,109.5357
136.4350,109.5395
135.6600,109.5395
135.6409,109.5357
135.6246,109.5249
135.6138,109.5086
135.6100,109.4895
135.6100,109.3895
135.6138,109.3704
135.6246,109.3541
135.6409,109.3433
135.6600,109.3395
136.4350,109.3395
136.4541,109.3433
136.4704,109.3541
136.4812,109.3704
136.4850,109.3895
Z" /> 
<path style="fill:#000000; fill-opacity:1.0000; stroke:none;fill-rule:evenodd;"
d="M 136.4850,109.0895
136.4812,109.1086
136.4704,109.1249
136.4541,109.1357
136.4350,109.1395
135.6600,109.1395
135.6409,109.1357
135.6246,109.1249
135.6138,109.1086
135.6100,109.0895
135.6100,108.9895
135.6138,108.9704
135.6246,108.9541
135.6409,108.9433
135.6600,108.9395
136.4350,108.9395
136.4541,108.9433
136.4704,108.9541
136.4812,108.9704
136.4850,108.9895
Z" /> 
<path style="fill:#000000; fill-opacity:1.0000; stroke:none;fill-rule:evenodd;"
d="M 135.3100,108.5895
135.3062,108.6086
135.2954,108.6249
135.2791,108.6357
135.2600,108.6395
135.1600,108.6395
135.1409,108.6357
135.1246,108.6249
135.1138,108.6086
135.1100,108.5895
135.1100,107.8145
135.1138,107.7954
135.1246,107.7791
135.1409,107.7683
135.1600,107.7645
135.2600,107.7645
135.2791,107.7683
135.2954,107.7791
135.3062,107.7954
135.3100,107.8145
Z" /> 
<path style="fill:#000000; fill-opacity:1.0000; stroke:none;fill-rule:evenodd;"
d="M 134.9100,108.5895
134.9062,108.6086
134.8954,108.6249
134.8791,108.6357
134.8600,108.6395
134.7600,108.6395
134.7409,108.6357
134.7246,108.6249
134.7138,108.6086
134.7100,108.5895
134.7100,107.8145
134.7138,107.7954
134.7246,107.7791
134.7409,107.7683
134.7600,107.7645
134.8600,107.7645
134.8791,107.7683
134.8954,107.7791
134.9062,107.7954
134.9100,107.8145
Z" /> 
<path style="fill:#000000; fill-opacity:1.0000; stroke:none;fill-rule:evenodd;"
d="M 134.5100,108.5895
134.5062,108.6086
134.4954,108.6249
134.4791,108.6357
134.4600,108.6395
134.3600,108.6395
134.3409,108.6357
134.3246,108.6249
134.3138,108.6086
134.3100,108.5895
134.3100,107.8145
134.3138,107.7954
134.3246,107.7791
134.3409,107.7683
134.3600,107.7645
134.4600,107.7645
134.4791,107.7683
134.4954,107.7791
134.5062,107.7954
134.5100,107.8145
Z" /> 
<path style="fill:#000000; fill-opacity:1.0000; stroke:none;fill-rule:evenodd;"
d="M 134.1100,108.5895
134.1062,108.6086
134.0954,108.6249
134.0791,108.6357
134.0600,108.6395
133.9600,108.6395
133.9409,108.6357
133.9246,108.6249
133.9138,108.6086
133.9100,108.5895
133.9100,107.8145
133.9138,107.7954
133.9246,107.7791
133.9409,107.7683
133.9600,107.7645
134.0600,107.7645
134.0791,107.7683
134.0954,107.7791
134.1062,107.7954
134.1100,107.8145
Z" /> 
<path style="fill:#000000; fill-opacity:1.0000; stroke:none;fill-rule:evenodd;"
d="M 133.7100,108.5895
133.7062,108.6086
133.6954,108.6249
133.6791,108.6357
133.6600,108.6395
133.5600,108.6395
133.5409,108.6357
133.5246,108.6249
133.5138,108.6086
133.5100,108.5895
133.5100,107.8145
133.5138,107.7954
133.5246,107.7791
133.5409,107.7683
133.5600,107.7645
133.6600,107.7645
133.6791,107.7683
133.6954,107.7791
133.7062,107.7954
133.7100,107.8145
Z" /> 
<path style="fill:#000000; fill-opacity:1.0000; stroke:none;fill-rule:evenodd;"
d="M 133.3100,108.5895
133.3062,108.6086
133.2954,108.6249
133.2791,108.6357
133.2600,108.6395
133.1600,108.6395
133.1409,108.6357
133.1246,108.6249
133.1138,108.6086
133.1100,108.5895
133.1100,107.8145
133.1138,107.7954
133.1246,107.7791
133.1409,107.7683
133.1600,107.7645
133.2600,107.7645
133.2791,107.7683
133.2954,107.7791
133.3062,107.7954
133.3100,107.8145
Z" /> 
<path style="fill:#000000; fill-opacity:1.0000; stroke:none;fill-rule:evenodd;"
d="M 132.9100,108.5895
132.9062,108.6086
132.8954,108.6249
132.8791,108.6357
132.8600,108.6395
132.7600,108.6395
132.7409,108.6357
132.7246,108.6249
132.7138,108.6086
132.7100,108.5895
132.7100,107.8145
132.7138,107.7954
132.7246,107.7791
132.7409,107.7683
132.7600,107.7645
132.8600,107.7645
132.8791,107.7683
132.8954,107.7791
132.9062,107.7954
132.9100,107.8145
Z" /> 
<path style="fill:#000000; fill-opacity:1.0000; stroke:none;fill-rule:evenodd;"
d="M 132.5100,108.5895
132.5062,108.6086
132.4954,108.6249
132.4791,108.6357
132.4600,108.6395
132.3600,108.6395
132.3409,108.6357
132.3246,108.6249
132.3138,108.6086
132.3100,108.5895
132.3100,107.8145
132.3138,107.7954
132.3246,107.7791
132.3409,107.7683
132.3600,107.7645
132.4600,107.7645
132.4791,107.7683
132.4954,107.7791
132.5062,107.7954
132.5100,107.8145
Z" /> 
<path style="fill:#000000; fill-opacity:1.0000; stroke:none;fill-rule:evenodd;"
d="M 132.1100,108.5895
132.1062,108.6086
132.0954,108.6249
132.0791,108.6357
132.0600,108.6395
131.9600,108.6395
131.9409,108.6357
131.9246,108.6249
131.9138,108.6086
131.9100,108.5895
131.9100,107.8145
131.9138,107.7954
131.9246,107.7791
131.9409,107.7683
131.9600,107.7645
132.0600,107.7645
132.0791,107.7683
132.0954,107.7791
132.1062,107.7954
132.1100,107.8145
Z" /> 
<path style="fill:#000000; fill-opacity:1.0000; stroke:none;fill-rule:evenodd;"
d="M 131.7100,108.5895
131.7062,108.6086
131.6954,108.6249
131.6791,108.6357
131.6600,108.6395
131.5600,108.6395
131.5409,108.6357
131.5246,108.6249
131.5138,108.6086
131.5100,108.5895
131.5100,107.8145
131.5138,107.7954
131.5246,107.7791
131.5409,107.7683
131.5600,107.7645
131.6600,107.7645
131.6791,107.7683
131.6954,107.7791
131.7062,107.7954
131.7100,107.8145
Z" /> 
<path style="fill:#000000; fill-opacity:1.0000; stroke:none;fill-rule:evenodd;"
d="M 131.3100,108.5895
131.3062,108.6086
131.2954,108.6249
131.2791,108.6357
131.2600,108.6395
131.1600,108.6395
131.1409,108.6357
131.1246,108.6249
131.1138,108.6086
131.1100,108.5895
131.1100,107.8145
131.1138,107.7954
131.1246,107.7791
131.1409,107.7683
131.1600,107.7645
131.2600,107.7645
131.2791,107.7683
131.2954,107.7791
131.3062,107.7954
131.3100,107.8145
Z" /> 
<path style="fill:#000000; fill-opacity:1.0000; stroke:none;fill-rule:evenodd;"
d="M 130.9100,108.5895
130.9062,108.6086
130.8954,108.6249
130.8791,108.6357
130.8600,108.6395
130.7600,108.6395
130.7409,108.6357
130.7246,108.6249
130.7138,108.6086
130.7100,108.5895
130.7100,107.8145
130.7138,107.7954
130.7246,107.7791
130.7409,107.7683
130.7600,107.7645
130.8600,107.7645
130.8791,107.7683
130.8954,107.7791
130.9062,107.7954
130.9100,107.8145
Z" /> 
<path style="fill:#000000; fill-opacity:1.0000; stroke:none;fill-rule:evenodd;"
d="M 130.5100,108.5895
130.5062,108.6086
130.4954,108.6249
130.4791,108.6357
130.4600,108.6395
130.3600,108.6395
130.3409,108.6357
130.3246,108.6249
130.3138,108.6086
130.3100,108.5895
130.3100,107.8145
130.3138,107.7954
130.3246,107.7791
130.3409,107.7683
130.3600,107.7645
130.4600,107.7645
130.4791,107.7683
130.4954,107.7791
130.5062,107.7954
130.5100,107.8145
Z" /> 
<path style="fill:#000000; fill-opacity:1.0000; stroke:none;fill-rule:evenodd;"
d="M 130.1100,108.5895
130.1062,108.6086
130.0954,108.6249
130.0791,108.6357
130.0600,108.6395
129.9600,108.6395
129.9409,108.6357
129.9246,108.6249
129.9138,108.6086
129.9100,108.5895
129.9100,107.8145
129.9138,107.7954
129.9246,107.7791
129.9409,107.7683
129.9600,107.7645
130.0600,107.7645
130.0791,107.7683
130.0954,107.7791
130.1062,107.7954
130.1100,107.8145
Z" /> 
<path style="fill:#000000; fill-opacity:1.0000; stroke:none;fill-rule:evenodd;"
d="M 129.6100,109.0895
129.6062,109.1086
129.5954,109.1249
129.5791,109.1357
129.5600,109.1395
128.7850,109.1395
128.7659,109.1357
128.7496,109.1249
128.7388,109.1086
128.7350,109.0895
128.7350,108.9895
128.7388,108.9704
128.7496,108.9541
128.7659,108.9433
128.7850,108.9395
129.5600,108.9395
129.5791,108.9433
129.5954,108.9541
129.6062,108.9704
129.6100,108.9895
Z" /> 
<path style="fill:#000000; fill-opacity:1.0000; stroke:none;fill-rule:evenodd;"
d="M 129.6100,109.4895
129.6062,109.5086
129.5954,109.5249
129.5791,109.5357
129.5600,109.5395
128.7850,109.5395
128.7659,109.5357
128.7496,109.5249
128.7388,109.5086
128.7350,109.4895
128.7350,109.3895
128.7388,109.3704
128.7496,109.3541
128.7659,109.3433
128.7850,109.3395
129.5600,109.3395
129.5791,109.3433
129.5954,109.3541
129.6062,109.3704
129.6100,109.3895
Z" /> 
<path style="fill:#000000; fill-opacity:1.0000; stroke:none;fill-rule:evenodd;"
d="M 129.6100,109.8895
129.6062,109.9086
129.5954,109.9249
129.5791,109.9357
129.5600,109.9395
128.7850,109.9395
128.7659,109.9357
128.7496,109.9249
128.7388,109.9086
128.7350,109.8895
128.7350,109.7895
128.7388,109.7704
128.7496,109.7541
128.7659,109.7433
128.7850,109.7395
129.5600,109.7395
129.5791,109.7433
129.5954,109.7541
129.6062,109.7704
129.6100,109.7895
Z" /> 
<path style="fill:#000000; fill-opacity:1.0000; stroke:none;fill-rule:evenodd;"
d="M 129.6100,110.2895
129.6062,110.3086
129.5954,110.3249
129.5791,110.3357
129.5600,110.3395
128.7850,110.3395
128.7659,110.3357
128.7496,110.3249
128.7388,110.3086
128.7350,110.2895
128.7350,110.1895
128.7388,110.1704
128.7496,110.1541
128.7659,110.1433
128.7850,110.1395
129.5600,110.1395
129.5791,110.1433
129.5954,110.1541
129.6062,110.1704
129.6100,110.1895
Z" /> 
<path style="fill:#000000; fill-opacity:1.0000; stroke:none;fill-rule:evenodd;"
d="M 129.6100,110.6895
129.6062,110.7086
129.5954,110.7249
129.5791,110.7357
129.5600,110.7395
128.7850,110.7395
128.7659,110.7357
128.7496,110.7249
128.7388,110.7086
128.7350,110.6895
128.7350,110.5895
128.7388,110.5704
128.7496,110.5541
128.7659,110.5433
128.7850,110.5395
129.5600,110.5395
129.5791,110.5433
129.5954,110.5541
129.6062,110.5704
129.6100,110.5895
Z" /> 
<path style="fill:#000000; fill-opacity:1.0000; stroke:none;fill-rule:evenodd;"
d="M 129.6100,111.0895
129.6062,111.1086
129.5954,111.1249
129.5791,111.1357
129.5600,111.1395
128.7850,111.1395
128.7659,111.1357
128.7496,111.1249
128.7388,111.1086
128.7350,111.0895
128.7350,110.9895
128.7388,110.9704
128.7496,110.9541
128.7659,110.9433
128.7850,110.9395
129.5600,110.9395
129.5791,110.9433
129.5954,110.9541
129.6062,110.9704
129.6100,110.9895
Z" /> 
<path style="fill:#000000; fill-opacity:1.0000; stroke:none;fill-rule:evenodd;"
d="M 129.6100,111.4895
129.6062,111.5086
129.5954,111.5249
129.5791,111.5357
129.5600,111.5395
128.7850,111.5395
128.7659,111.5357
128.7496,111.5249
128.7388,111.5086
128.7350,111.4895
128.7350,111.3895
128.7388,111.3704
128.7496,111.3541
128.7659,111.3433
128.7850,111.3395
129.5600,111.3395
129.5791,111.3433
129.5954,111.3541
129.6062,111.3704
129.6100,111.3895
Z" /> 
<path style="fill:#000000; fill-opacity:1.0000; stroke:none;fill-rule:evenodd;"
d="M 129.6100,111.8895
129.6062,111.9086
129.5954,111.9249
129.5791,111.9357
129.5600,111.9395
128.7850,111.9395
128.7659,111.9357
128.7496,111.9249
128.7388,111.9086
128.7350,111.8895
128.7350,111.7895
128.7388,111.7704
128.7496,111.7541
128.7659,111.7433
128.7850,111.7395
129.5600,111.7395
129.5791,111.7433
129.5954,111.7541
129.6062,111.7704
129.6100,111.7895
Z" /> 
<path style="fill:#000000; fill-opacity:1.0000; stroke:none;fill-rule:evenodd;"
d="M 129.6100,112.2895
129.6062,112.3086
129.5954,112.3249
129.5791,112.3357
129.5600,112.3395
128.7850,112.3395
128.7659,112.3357
128.7496,112.3249
128.7388,112.3086
128.7350,112.2895
128.7350,112.1895
128.7388,112.1704
128.7496,112.1541
128.7659,112.1433
128.7850,112.1395
129.5600,112.1395
129.5791,112.1433
129.5954,112.1541
129.6062,112.1704
129.6100,112.1895
Z" /> 
<path style="fill:#000000; fill-opacity:1.0000; stroke:none;fill-rule:evenodd;"
d="M 129.6100,112.6895
129.6062,112.7086
129.5954,112.7249
129.5791,112.7357
129.5600,112.7395
128.7850,112.7395
128.7659,112.7357
128.7496,112.7249
128.7388,112.7086
128.7350,112.6895
128.7350,112.5895
128.7388,112.5704
128.7496,112.5541
128.7659,112.5433
128.7850,112.5395
129.5600,112.5395
129.5791,112.5433
129.5954,112.5541
129.6062,112.5704
129.6100,112.5895
Z" /> 
<path style="fill:#000000; fill-opacity:1.0000; stroke:none;fill-rule:evenodd;"
d="M 129.6100,113.0895
129.6062,113.1086
129.5954,113.1249
129.5791,113.1357
129.5600,113.1395
128.7850,113.1395
128.7659,113.1357
128.7496,113.1249
128.7388,113.1086
128.7350,113.0895
128.7350,112.9895
128.7388,112.9704
128.7496,112.9541
128.7659,112.9433
128.7850,112.9395
129.5600,112.9395
129.5791,112.9433
129.5954,112.9541
129.6062,112.9704
129.6100,112.9895
Z" /> 
<path style="fill:#000000; fill-opacity:1.0000; stroke:none;fill-rule:evenodd;"
d="M 129.6100,113.4895
129.6062,113.5086
129.5954,113.5249
129.5791,113.5357
129.5600,113.5395
128.7850,113.5395
128.7659,113.5357
128.7496,113.5249
128.7388,113.5086
128.7350,113.4895
128.7350,113.3895
128.7388,113.3704
128.7496,113.3541
128.7659,113.3433
128.7850,113.3395
129.5600,113.3395
129.5791,113.3433
129.5954,113.3541
129.6062,113.3704
129.6100,113.3895
Z" /> 
<path style="fill:#000000; fill-opacity:1.0000; stroke:none;fill-rule:evenodd;"
d="M 129.6100,113.8895
129.6062,113.9086
129.5954,113.9249
129.5791,113.9357
129.5600,113.9395
128.7850,113.9395
128.7659,113.9357
128.7496,113.9249
128.7388,113.9086
128.7350,113.8895
128.7350,113.7895
128.7388,113.7704
128.7496,113.7541
128.7659,113.7433
128.7850,113.7395
129.5600,113.7395
129.5791,113.7433
129.5954,113.7541
129.6062,113.7704
129.6100,113.7895
Z" /> 
<path style="fill:#000000; fill-opacity:1.0000; stroke:none;fill-rule:evenodd;"
d="M 129.6100,114.2895
129.6062,114.3086
129.5954,114.3249
129.5791,114.3357
129.5600,114.3395
128.7850,114.3395
128.7659,114.3357
128.7496,114.3249
128.7388,114.3086
128.7350,114.2895
128.7350,114.1895
128.7388,114.1704
128.7496,114.1541
128.7659,114.1433
128.7850,114.1395
129.5600,114.1395
129.5791,114.1433
129.5954,114.1541
129.6062,114.1704
129.6100,114.1895
Z" /> 
<path style="fill:#000000; fill-opacity:1.0000; stroke:none;fill-rule:evenodd;"
d="M 130.1100,115.4645
130.1062,115.4836
130.0954,115.4999
130.0791,115.5107
130.0600,115.5145
129.9600,115.5145
129.9409,115.5107
129.9246,115.4999
129.9138,115.4836
129.9100,115.4645
129.9100,114.6895
129.9138,114.6704
129.9246,114.6541
129.9409,114.6433
129.9600,114.6395
130.0600,114.6395
130.0791,114.6433
130.0954,114.6541
130.1062,114.6704
130.1100,114.6895
Z" /> 
<path style="fill:#000000; fill-opacity:1.0000; stroke:none;fill-rule:evenodd;"
d="M 130.5100,115.4645
130.5062,115.4836
130.4954,115.4999
130.4791,115.5107
130.4600,115.5145
130.3600,115.5145
130.3409,115.5107
130.3246,115.4999
130.3138,115.4836
130.3100,115.4645
130.3100,114.6895
130.3138,114.6704
130.3246,114.6541
130.3409,114.6433
130.3600,114.6395
130.4600,114.6395
130.4791,114.6433
130.4954,114.6541
130.5062,114.6704
130.5100,114.6895
Z" /> 
<path style="fill:#000000; fill-opacity:1.0000; stroke:none;fill-rule:evenodd;"
d="M 130.9100,115.4645
130.9062,115.4836
130.8954,115.4999
130.8791,115.5107
130.8600,115.5145
130.7600,115.5145
130.7409,115.5107
130.7246,115.4999
130.7138,115.4836
130.7100,115.4645
130.7100,114.6895
130.7138,114.6704
130.7246,114.6541
130.7409,114.6433
130.7600,114.6395
130.8600,114.6395
130.8791,114.6433
130.8954,114.6541
130.9062,114.6704
130.9100,114.6895
Z" /> 
<path style="fill:#000000; fill-opacity:1.0000; stroke:none;fill-rule:evenodd;"
d="M 131.3100,115.4645
131.3062,115.4836
131.2954,115.4999
131.2791,115.5107
131.2600,115.5145
131.1600,115.5145
131.1409,115.5107
131.1246,115.4999
131.1138,115.4836
131.1100,115.4645
131.1100,114.6895
131.1138,114.6704
131.1246,114.6541
131.1409,114.6433
131.1600,114.6395
131.2600,114.6395
131.2791,114.6433
131.2954,114.6541
131.3062,114.6704
131.3100,114.6895
Z" /> 
<path style="fill:#000000; fill-opacity:1.0000; stroke:none;fill-rule:evenodd;"
d="M 131.7100,115.4645
131.7062,115.4836
131.6954,115.4999
131.6791,115.5107
131.6600,115.5145
131.5600,115.5145
131.5409,115.5107
131.5246,115.4999
131.5138,115.4836
131.5100,115.4645
131.5100,114.6895
131.5138,114.6704
131.5246,114.6541
131.5409,114.6433
131.5600,114.6395
131.6600,114.6395
131.6791,114.6433
131.6954,114.6541
131.7062,114.6704
131.7100,114.6895
Z" /> 
<path style="fill:#000000; fill-opacity:1.0000; stroke:none;fill-rule:evenodd;"
d="M 132.1100,115.4645
132.1062,115.4836
132.0954,115.4999
132.0791,115.5107
132.0600,115.5145
131.9600,115.5145
131.9409,115.5107
131.9246,115.4999
131.9138,115.4836
131.9100,115.4645
131.9100,114.6895
131.9138,114.6704
131.9246,114.6541
131.9409,114.6433
131.9600,114.6395
132.0600,114.6395
132.0791,114.6433
132.0954,114.6541
132.1062,114.6704
132.1100,114.6895
Z" /> 
<path style="fill:#000000; fill-opacity:1.0000; stroke:none;fill-rule:evenodd;"
d="M 132.5100,115.4645
132.5062,115.4836
132.4954,115.4999
132.4791,115.5107
132.4600,115.5145
132.3600,115.5145
132.3409,115.5107
132.3246,115.4999
132.3138,115.4836
132.3100,115.4645
132.3100,114.6895
132.3138,114.6704
132.3246,114.6541
132.3409,114.6433
132.3600,114.6395
132.4600,114.6395
132.4791,114.6433
132.4954,114.6541
132.5062,114.6704
132.5100,114.6895
Z" /> 
<path style="fill:#000000; fill-opacity:1.0000; stroke:none;fill-rule:evenodd;"
d="M 132.9100,115.4645
132.9062,115.4836
132.8954,115.4999
132.8791,115.5107
132.8600,115.5145
132.7600,115.5145
132.7409,115.5107
132.7246,115.4999
132.7138,115.4836
132.7100,115.4645
132.7100,114.6895
132.7138,114.6704
132.7246,114.6541
132.7409,114.6433
132.7600,114.6395
132.8600,114.6395
132.8791,114.6433
132.8954,114.6541
132.9062,114.6704
132.9100,114.6895
Z" /> 
<path style="fill:#000000; fill-opacity:1.0000; stroke:none;fill-rule:evenodd;"
d="M 133.3100,115.4645
133.3062,115.4836
133.2954,115.4999
133.2791,115.5107
133.2600,115.5145
133.1600,115.5145
133.1409,115.5107
133.1246,115.4999
133.1138,115.4836
133.1100,115.4645
133.1100,114.6895
133.1138,114.6704
133.1246,114.6541
133.1409,114.6433
133.1600,114.6395
133.2600,114.6395
133.2791,114.6433
133.2954,114.6541
133.3062,114.6704
133.3100,114.6895
Z" /> 
<path style="fill:#000000; fill-opacity:1.0000; stroke:none;fill-rule:evenodd;"
d="M 133.7100,115.4645
133.7062,115.4836
133.6954,115.4999
133.6791,115.5107
133.6600,115.5145
133.5600,115.5145
133.5409,115.5107
133.5246,115.4999
133.5138,115.4836
133.5100,115.4645
133.5100,114.6895
133.5138,114.6704
133.5246,114.6541
133.5409,114.6433
133.5600,114.6395
133.6600,114.6395
133.6791,114.6433
133.6954,114.6541
133.7062,114.6704
133.7100,114.6895
Z" /> 
<path style="fill:#000000; fill-opacity:1.0000; stroke:none;fill-rule:evenodd;"
d="M 134.1100,115.4645
134.1062,115.4836
134.0954,115.4999
134.0791,115.5107
134.0600,115.5145
133.9600,115.5145
133.9409,115.5107
133.9246,115.4999
133.9138,115.4836
133.9100,115.4645
133.9100,114.6895
133.9138,114.6704
133.9246,114.6541
133.9409,114.6433
133.9600,114.6395
134.0600,114.6395
134.0791,114.6433
134.0954,114.6541
134.1062,114.6704
134.1100,114.6895
Z" /> 
<path style="fill:#000000; fill-opacity:1.0000; stroke:none;fill-rule:evenodd;"
d="M 134.5100,115.4645
134.5062,115.4836
134.4954,115.4999
134.4791,115.5107
134.4600,115.5145
134.3600,115.5145
134.3409,115.5107
134.3246,115.4999
134.3138,115.4836
134.3100,115.4645
134.3100,114.6895
134.3138,114.6704
134.3246,114.6541
134.3409,114.6433
134.3600,114.6395
134.4600,114.6395
134.4791,114.6433
134.4954,114.6541
134.5062,114.6704
134.5100,114.6895
Z" /> 
<path style="fill:#000000; fill-opacity:1.0000; stroke:none;fill-rule:evenodd;"
d="M 134.9100,115.4645
134.9062,115.4836
134.8954,115.4999
134.8791,115.5107
134.8600,115.5145
134.7600,115.5145
134.7409,115.5107
134.7246,115.4999
134.7138,115.4836
134.7100,115.4645
134.7100,114.6895
134.7138,114.6704
134.7246,114.6541
134.7409,114.6433
134.7600,114.6395
134.8600,114.6395
134.8791,114.6433
134.8954,114.6541
134.9062,114.6704
134.9100,114.6895
Z" /> 
<path style="fill:#000000; fill-opacity:1.0000; stroke:none;fill-rule:evenodd;"
d="M 135.3100,115.4645
135.3062,115.4836
135.2954,115.4999
135.2791,115.5107
135.2600,115.5145
135.1600,115.5145
135.1409,115.5107
135.1246,115.4999
135.1138,115.4836
135.1100,115.4645
135.1100,114.6895
135.1138,114.6704
135.1246,114.6541
135.1409,114.6433
135.1600,114.6395
135.2600,114.6395
135.2791,114.6433
135.2954,114.6541
135.3062,114.6704
135.3100,114.6895
Z" /> 
<path style="fill:#000000; fill-opacity:1.0000; stroke:none;fill-rule:evenodd;"
d="M 148.2092,128.4804
148.2282,128.3847
148.2824,128.3036
148.3635,128.2494
148.4592,128.2304
149.1592,128.2304
149.2549,128.2494
149.3360,128.3036
149.3902,128.3847
149.4092,128.4804
149.4092,129.3804
149.3902,129.4761
149.3360,129.5572
149.2549,129.6114
149.1592,129.6304
148.4592,129.6304
148.3635,129.6114
148.2824,129.5572
148.2282,129.4761
148.2092,129.3804
Z" /> 
<path style="fill:#000000; fill-opacity:1.0000; stroke:none;fill-rule:evenodd;"
d="M 150.2092,128.4804
150.2282,128.3847
150.2824,128.3036
150.3635,128.2494
150.4592,128.2304
151.1592,128.2304
151.2549,128.2494
151.3360,128.3036
151.3902,128.3847
151.4092,128.4804
151.4092,129.3804
151.3902,129.4761
151.3360,129.5572
151.2549,129.6114
151.1592,129.6304
150.4592,129.6304
150.3635,129.6114
150.2824,129.5572
150.2282,129.4761
150.2092,129.3804
Z" /> 
<path style="fill:#000000; fill-opacity:1.0000; stroke:none;fill-rule:evenodd;"
d="M 148.6410,118.8030
148.6600,118.7073
148.7142,118.6262
148.7953,118.5720
148.8910,118.5530
149.5910,118.5530
149.6867,118.5720
149.7678,118.6262
149.8220,118.7073
149.8410,118.8030
149.8410,119.7030
149.8220,119.7987
149.7678,119.8798
149.6867,119.9340
149.5910,119.9530
148.8910,119.9530
148.7953,119.9340
148.7142,119.8798
148.6600,119.7987
148.6410,119.7030
Z" /> 
<path style="fill:#000000; fill-opacity:1.0000; stroke:none;fill-rule:evenodd;"
d="M 150.6410,118.8030
150.6600,118.7073
150.7142,118.6262
150.7953,118.5720
150.8910,118.5530
151.5910,118.5530
151.6867,118.5720
151.7678,118.6262
151.8220,118.7073
151.8410,118.8030
151.8410,119.7030
151.8220,119.7987
151.7678,119.8798
151.6867,119.9340
151.5910,119.9530
150.8910,119.9530
150.7953,119.9340
150.7142,119.8798
150.6600,119.7987
150.6410,119.7030
Z" /> 
<path style="fill:#000000; fill-opacity:1.0000; stroke:none;fill-rule:evenodd;"
d="M 119.7930,128.3640
119.7740,128.4597
119.7198,128.5408
119.6387,128.5950
119.5430,128.6140
118.8680,128.6140
118.7723,128.5950
118.6912,128.5408
118.6370,128.4597
118.6180,128.3640
118.6180,127.4140
118.6370,127.3183
118.6912,127.2372
118.7723,127.1830
118.8680,127.1640
119.5430,127.1640
119.6387,127.1830
119.7198,127.2372
119.7740,127.3183
119.7930,127.4140
Z" /> 
<path style="fill:#000000; fill-opacity:1.0000; stroke:none;fill-rule:evenodd;"
d="M 117.7180,128.3640
117.6990,128.4597
117.6448,128.5408
117.5637,128.5950
117.4680,128.6140
116.7930,128.6140
116.6973,128.5950
116.6162,128.5408
116.5620,128.4597
116.5430,128.3640
116.5430,127.4140
116.5620,127.3183
116.6162,127.2372
116.6973,127.1830
116.7930,127.1640
117.4680,127.1640
117.5637,127.1830
117.6448,127.2372
117.6990,127.3183
117.7180,127.4140
Z" /> 
<path style="fill:#000000; fill-opacity:1.0000; stroke:none;fill-rule:evenodd;"
d="M 113.5376,119.9648
113.6333,119.9838
113.7144,120.0380
113.7686,120.1191
113.7876,120.2148
113.7876,120.8898
113.7686,120.9855
113.7144,121.0666
113.6333,121.1208
113.5376,121.1398
112.5876,121.1398
112.4919,121.1208
112.4108,121.0666
112.3566,120.9855
112.3376,120.8898
112.3376,120.2148
112.3566,120.1191
112.4108,120.0380
112.4919,119.9838
112.5876,119.9648
Z" /> 
<path style="fill:#000000; fill-opacity:1.0000; stroke:none;fill-rule:evenodd;"
d="M 113.5376,122.0398
113.6333,122.0588
113.7144,122.1130
113.7686,122.1941
113.7876,122.2898
113.7876,122.9648
113.7686,123.0605
113.7144,123.1416
113.6333,123.1958
113.5376,123.2148
112.5876,123.2148
112.4919,123.1958
112.4108,123.1416
112.3566,123.0605
112.3376,122.9648
112.3376,122.2898
112.3566,122.1941
112.4108,122.1130
112.4919,122.0588
112.5876,122.0398
Z" /> 
<path style="fill:#000000; fill-opacity:1.0000; stroke:none;fill-rule:evenodd;"
d="M 124.7305,123.4470
124.6396,123.4289
124.5626,123.3774
124.5111,123.3004
124.4930,123.2095
124.4930,122.6095
124.5111,122.5186
124.5626,122.4416
124.6396,122.3901
124.7305,122.3720
125.2055,122.3720
125.2964,122.3901
125.3734,122.4416
125.4249,122.5186
125.4430,122.6095
125.4430,123.2095
125.4249,123.3004
125.3734,123.3774
125.2964,123.4289
125.2055,123.4470
Z" /> 
<path style="fill:#000000; fill-opacity:1.0000; stroke:none;fill-rule:evenodd;"
d="M 124.7305,121.7220
124.6396,121.7039
124.5626,121.6524
124.5111,121.5754
124.4930,121.4845
124.4930,120.8845
124.5111,120.7936
124.5626,120.7166
124.6396,120.6651
124.7305,120.6470
125.2055,120.6470
125.2964,120.6651
125.3734,120.7166
125.4249,120.7936
125.4430,120.8845
125.4430,121.4845
125.4249,121.5754
125.3734,121.6524
125.2964,121.7039
125.2055,121.7220
Z" /> 
<path style="fill:#000000; fill-opacity:1.0000; stroke:none;fill-rule:evenodd;"
d="M 126.9400,54.1600
126.9590,54.0643
127.0132,53.9832
127.0943,53.9290
127.1900,53.9100
127.8900,53.9100
127.9857,53.9290
128.0668,53.9832
128.1210,54.0643
128.1400,54.1600
128.1400,55.0600
128.1210,55.1557
128.0668,55.2368
127.9857,55.2910
127.8900,55.3100
127.1900,55.3100
127.0943,55.2910
127.0132,55.2368
126.9590,55.1557
126.9400,55.0600
Z" /> 
<path style="fill:#000000; fill-opacity:1.0000; stroke:none;fill-rule:evenodd;"
d="M 128.9400,54.1600
128.9590,54.0643
129.0132,53.9832
129.0943,53.9290
129.1900,53.9100
129.8900,53.9100
129.9857,53.9290
130.0668,53.9832
130.1210,54.0643
130.1400,54.1600
130.1400,55.0600
130.1210,55.1557
130.0668,55.2368
129.9857,55.2910
129.8900,55.3100
129.1900,55.3100
129.0943,55.2910
129.0132,55.2368
128.9590,55.1557
128.9400,55.0600
Z" /> 
<path style="fill:#000000; fill-opacity:1.0000; stroke:none;fill-rule:evenodd;"
d="M 124.7305,119.5100
124.6396,119.4919
124.5626,119.4404
124.5111,119.3634
124.4930,119.2725
124.4930,118.6725
124.5111,118.5816
124.5626,118.5046
124.6396,118.4531
124.7305,118.4350
125.2055,118.4350
125.2964,118.4531
125.3734,118.5046
125.4249,118.5816
125.4430,118.6725
125.4430,119.2725
125.4249,119.3634
125.3734,119.4404
125.2964,119.4919
125.2055,119.5100
Z" /> 
<path style="fill:#000000; fill-opacity:1.0000; stroke:none;fill-rule:evenodd;"
d="M 124.7305,117.7850
124.6396,117.7669
124.5626,117.7154
124.5111,117.6384
124.4930,117.5475
124.4930,116.9475
124.5111,116.8566
124.5626,116.7796
124.6396,116.7281
124.7305,116.7100
125.2055,116.7100
125.2964,116.7281
125.3734,116.7796
125.4249,116.8566
125.4430,116.9475
125.4430,117.5475
125.4249,117.6384
125.3734,117.7154
125.2964,117.7669
125.2055,117.7850
Z" /> 
<path style="fill:#000000; fill-opacity:1.0000; stroke:none;fill-rule:evenodd;"
d="M 128.5075,116.6940
128.5984,116.7121
128.6754,116.7636
128.7269,116.8406
128.7450,116.9315
128.7450,117.5315
128.7269,117.6224
128.6754,117.6994
128.5984,117.7509
128.5075,117.7690
128.0325,117.7690
127.9416,117.7509
127.8646,117.6994
127.8131,117.6224
127.7950,117.5315
127.7950,116.9315
127.8131,116.8406
127.8646,116.7636
127.9416,116.7121
128.0325,116.6940
Z" /> 
<path style="fill:#000000; fill-opacity:1.0000; stroke:none;fill-rule:evenodd;"
d="M 128.5075,118.4190
128.5984,118.4371
128.6754,118.4886
128.7269,118.5656
128.7450,118.6565
128.7450,119.2565
128.7269,119.3474
128.6754,119.4244
128.5984,119.4759
128.5075,119.4940
128.0325,119.4940
127.9416,119.4759
127.8646,119.4244
127.8131,119.3474
127.7950,119.2565
127.7950,118.6565
127.8131,118.5656
127.8646,118.4886
127.9416,118.4371
128.0325,118.4190
Z" /> 
<path style="fill:#000000; fill-opacity:1.0000; stroke:none;fill-rule:evenodd;"
d="M 128.7200,48.5650
128.8157,48.5840
128.8968,48.6382
128.9510,48.7193
128.9700,48.8150
128.9700,49.5150
128.9510,49.6107
128.8968,49.6918
128.8157,49.7460
128.7200,49.7650
127.8200,49.7650
127.7243,49.7460
127.6432,49.6918
127.5890,49.6107
127.5700,49.5150
127.5700,48.8150
127.5890,48.7193
127.6432,48.6382
127.7243,48.5840
127.8200,48.5650
Z" /> 
<path style="fill:#000000; fill-opacity:1.0000; stroke:none;fill-rule:evenodd;"
d="M 128.7200,50.5650
128.8157,50.5840
128.8968,50.6382
128.9510,50.7193
128.9700,50.8150
128.9700,51.5150
128.9510,51.6107
128.8968,51.6918
128.8157,51.7460
128.7200,51.7650
127.8200,51.7650
127.7243,51.7460
127.6432,51.6918
127.5890,51.6107
127.5700,51.5150
127.5700,50.8150
127.5890,50.7193
127.6432,50.6382
127.7243,50.5840
127.8200,50.5650
Z" /> 
<path style="fill:#000000; fill-opacity:1.0000; stroke:none;fill-rule:evenodd;"
d="M 112.5550,133.0700
112.4593,133.0510
112.3782,132.9968
112.3240,132.9157
112.3050,132.8200
112.3050,132.1450
112.3240,132.0493
112.3782,131.9682
112.4593,131.9140
112.5550,131.8950
113.5050,131.8950
113.6007,131.9140
113.6818,131.9682
113.7360,132.0493
113.7550,132.1450
113.7550,132.8200
113.7360,132.9157
113.6818,132.9968
113.6007,133.0510
113.5050,133.0700
Z" /> 
<path style="fill:#000000; fill-opacity:1.0000; stroke:none;fill-rule:evenodd;"
d="M 112.5550,130.9950
112.4593,130.9760
112.3782,130.9218
112.3240,130.8407
112.3050,130.7450
112.3050,130.0700
112.3240,129.9743
112.3782,129.8932
112.4593,129.8390
112.5550,129.8200
113.5050,129.8200
113.6007,129.8390
113.6818,129.8932
113.7360,129.9743
113.7550,130.0700
113.7550,130.7450
113.7360,130.8407
113.6818,130.9218
113.6007,130.9760
113.5050,130.9950
Z" /> 
<path style="fill:#000000; fill-opacity:1.0000; stroke:none;fill-rule:evenodd;"
d="M 129.8105,119.4940
129.7196,119.4759
129.6426,119.4244
129.5911,119.3474
129.5730,119.2565
129.5730,118.6565
129.5911,118.5656
129.6426,118.4886
129.7196,118.4371
129.8105,118.4190
130.2855,118.4190
130.3764,118.4371
130.4534,118.4886
130.5049,118.5656
130.5230,118.6565
130.5230,119.2565
130.5049,119.3474
130.4534,119.4244
130.3764,119.4759
130.2855,119.4940
Z" /> 
<path style="fill:#000000; fill-opacity:1.0000; stroke:none;fill-rule:evenodd;"
d="M 129.8105,117.7690
129.7196,117.7509
129.6426,117.6994
129.5911,117.6224
129.5730,117.5315
129.5730,116.9315
129.5911,116.8406
129.6426,116.7636
129.7196,116.7121
129.8105,116.6940
130.2855,116.6940
130.3764,116.7121
130.4534,116.7636
130.5049,116.8406
130.5230,116.9315
130.5230,117.5315
130.5049,117.6224
130.4534,117.6994
130.3764,117.7509
130.2855,117.7690
Z" /> 
<path style="fill:#000000; fill-opacity:1.0000; stroke:none;fill-rule:evenodd;"
d="M 133.7746,127.0256
133.8703,127.0446
133.9514,127.0988
134.0056,127.1799
134.0246,127.2756
134.0246,127.9756
134.0056,128.0713
133.9514,128.1524
133.8703,128.2066
133.7746,128.2256
132.8746,128.2256
132.7789,128.2066
132.6978,128.1524
132.6436,128.0713
132.6246,127.9756
132.6246,127.2756
132.6436,127.1799
132.6978,127.0988
132.7789,127.0446
132.8746,127.0256
Z" /> 
<path style="fill:#000000; fill-opacity:1.0000; stroke:none;fill-rule:evenodd;"
d="M 133.7746,129.0256
133.8703,129.0446
133.9514,129.0988
134.0056,129.1799
134.0246,129.2756
134.0246,129.9756
134.0056,130.0713
133.9514,130.1524
133.8703,130.2066
133.7746,130.2256
132.8746,130.2256
132.7789,130.2066
132.6978,130.1524
132.6436,130.0713
132.6246,129.9756
132.6246,129.2756
132.6436,129.1799
132.6978,129.0988
132.7789,129.0446
132.8746,129.0256
Z" /> 
<path style="fill:#000000; fill-opacity:1.0000; stroke:none;fill-rule:evenodd;"
d="M 130.2948,127.0510
130.3905,127.0700
130.4716,127.1242
130.5258,127.2053
130.5448,127.3010
130.5448,128.0010
130.5258,128.0967
130.4716,128.1778
130.3905,128.2320
130.2948,128.2510
129.3948,128.2510
129.2991,128.2320
129.2180,128.1778
129.1638,128.0967
129.1448,128.0010
129.1448,127.3010
129.1638,127.2053
129.2180,127.1242
129.2991,127.0700
129.3948,127.0510
Z" /> 
<path style="fill:#000000; fill-opacity:1.0000; stroke:none;fill-rule:evenodd;"
d="M 130.2948,129.0510
130.3905,129.0700
130.4716,129.1242
130.5258,129.2053
130.5448,129.3010
130.5448,130.0010
130.5258,130.0967
130.4716,130.1778
130.3905,130.2320
130.2948,130.2510
129.3948,130.2510
129.2991,130.2320
129.2180,130.1778
129.1638,130.0967
129.1448,130.0010
129.1448,129.3010
129.1638,129.2053
129.2180,129.1242
129.2991,129.0700
129.3948,129.0510
Z" /> 
<path style="fill:#000000; fill-opacity:1.0000; stroke:none;fill-rule:evenodd;"
d="M 130.8265,106.9475
130.7356,106.9294
130.6586,106.8779
130.6071,106.8009
130.5890,106.7100
130.5890,106.1100
130.6071,106.0191
130.6586,105.9421
130.7356,105.8906
130.8265,105.8725
131.3015,105.8725
131.3924,105.8906
131.4694,105.9421
131.5209,106.0191
131.5390,106.1100
131.5390,106.7100
131.5209,106.8009
131.4694,106.8779
131.3924,106.9294
131.3015,106.9475
Z" /> 
<path style="fill:#000000; fill-opacity:1.0000; stroke:none;fill-rule:evenodd;"
d="M 130.8265,105.2225
130.7356,105.2044
130.6586,105.1529
130.6071,105.0759
130.5890,104.9850
130.5890,104.3850
130.6071,104.2941
130.6586,104.2171
130.7356,104.1656
130.8265,104.1475
131.3015,104.1475
131.3924,104.1656
131.4694,104.2171
131.5209,104.2941
131.5390,104.3850
131.5390,104.9850
131.5209,105.0759
131.4694,105.1529
131.3924,105.2044
131.3015,105.2225
Z" /> 
<path style="fill:#000000; fill-opacity:1.0000; stroke:none;fill-rule:evenodd;"
d="M 132.6460,106.9570
132.5503,106.9380
132.4692,106.8838
132.4150,106.8027
132.3960,106.7070
132.3960,106.0070
132.4150,105.9113
132.4692,105.8302
132.5503,105.7760
132.6460,105.7570
133.5460,105.7570
133.6417,105.7760
133.7228,105.8302
133.7770,105.9113
133.7960,106.0070
133.7960,106.7070
133.7770,106.8027
133.7228,106.8838
133.6417,106.9380
133.5460,106.9570
Z" /> 
<path style="fill:#000000; fill-opacity:1.0000; stroke:none;fill-rule:evenodd;"
d="M 132.6460,104.9570
132.5503,104.9380
132.4692,104.8838
132.4150,104.8027
132.3960,104.7070
132.3960,104.0070
132.4150,103.9113
132.4692,103.8302
132.5503,103.7760
132.6460,103.7570
133.5460,103.7570
133.6417,103.7760
133.7228,103.8302
133.7770,103.9113
133.7960,104.0070
133.7960,104.7070
133.7770,104.8027
133.7228,104.8838
133.6417,104.9380
133.5460,104.9570
Z" /> 
<path style="fill:#000000; fill-opacity:1.0000; stroke:none;fill-rule:evenodd;"
d="M 137.5575,48.1360
137.4666,48.1179
137.3896,48.0664
137.3381,47.9894
137.3200,47.8985
137.3200,47.3985
137.3381,47.3076
137.3896,47.2306
137.4666,47.1791
137.5575,47.1610
138.0325,47.1610
138.1234,47.1791
138.2004,47.2306
138.2519,47.3076
138.2700,47.3985
138.2700,47.8985
138.2519,47.9894
138.2004,48.0664
138.1234,48.1179
138.0325,48.1360
Z" /> 
<path style="fill:#000000; fill-opacity:1.0000; stroke:none;fill-rule:evenodd;"
d="M 137.5575,46.3110
137.4666,46.2929
137.3896,46.2414
137.3381,46.1644
137.3200,46.0735
137.3200,45.5735
137.3381,45.4826
137.3896,45.4056
137.4666,45.3541
137.5575,45.3360
138.0325,45.3360
138.1234,45.3541
138.2004,45.4056
138.2519,45.4826
138.2700,45.5735
138.2700,46.0735
138.2519,46.1644
138.2004,46.2414
138.1234,46.2929
138.0325,46.3110
Z" /> 
<path style="fill:#000000; fill-opacity:1.0000; stroke:none;fill-rule:evenodd;"
d="M 127.6380,110.8650
127.6199,110.9559
127.5684,111.0329
127.4914,111.0844
127.4005,111.1025
126.8005,111.1025
126.7096,111.0844
126.6326,111.0329
126.5811,110.9559
126.5630,110.8650
126.5630,110.3900
126.5811,110.2991
126.6326,110.2221
126.7096,110.1706
126.8005,110.1525
127.4005,110.1525
127.4914,110.1706
127.5684,110.2221
127.6199,110.2991
127.6380,110.3900
Z" /> 
<path style="fill:#000000; fill-opacity:1.0000; stroke:none;fill-rule:evenodd;"
d="M 125.9130,110.8650
125.8949,110.9559
125.8434,111.0329
125.7664,111.0844
125.6755,111.1025
125.0755,111.1025
124.9846,111.0844
124.9076,111.0329
124.8561,110.9559
124.8380,110.8650
124.8380,110.3900
124.8561,110.2991
124.9076,110.2221
124.9846,110.1706
125.0755,110.1525
125.6755,110.1525
125.7664,110.1706
125.8434,110.2221
125.8949,110.2991
125.9130,110.3900
Z" /> 
</g> 
</svg>
