<?xml version="1.0" standalone="no"?>
 <!DOCTYPE svg PUBLIC "-//W3C//DTD SVG 1.1//EN" 
 "http://www.w3.org/Graphics/SVG/1.1/DTD/svg11.dtd"> 
<svg
  xmlns:svg="http://www.w3.org/2000/svg"
  xmlns="http://www.w3.org/2000/svg"
  xmlns:xlink="http://www.w3.org/1999/xlink"
  version="1.1"
  width="297.0022mm" height="210.0072mm" viewBox="0.0000 0.0000 297.0022 210.0072">
<title>SVG Image created as tv-remote-Edge_Cuts.svg date 2025/01/16 16:04:05 </title>
  <desc>Image generated by PCBNEW </desc>
<g style="fill:#000000; fill-opacity:1.0000;stroke:#000000; stroke-opacity:1.0000;
stroke-linecap:round; stroke-linejoin:round;"
 transform="translate(0 0) scale(1 1)">
</g>
<g style="fill:none; 
stroke:#000000; stroke-width:0.0500; stroke-opacity:1; 
stroke-linecap:round; stroke-linejoin:round;">
<path d="M111.4425 40.6400 A3.1750 3.1750 0.0 0 0 108.2675 43.8150" />
<path d="M158.2420 43.6880 A3.0480 3.0480 0.0 0 0 155.1940 40.6400" />
<path d="M158.2420 43.6880
L157.9880 138.1760
" />
<path d="M111.4425 40.6400
L155.1940 40.6400
" />
<path d="M154.8131 141.2214 A3.0480 3.0480 0.0 0 0 157.9880 138.1760" />
<path d="M108.2675 43.8150
L108.2675 138.0490
" />
<path d="M137.6632 141.2412
L154.8131 141.2214
" />
<path d="M108.2675 138.0490 A3.1750 3.1750 0.0 0 0 111.4425 141.2240" />
<path d="M111.4425 141.2240
L128.4232 141.2412
" />
</g>
<g style="fill:none; 
stroke:#000000; stroke-width:0.0100; stroke-opacity:1; 
stroke-linecap:round; stroke-linejoin:round;">
<path d="M128.4232 134.5412
L128.4232 141.2412
" />
<path d="M136.9802 134.5412
L129.1062 134.5412
" />
<path d="M137.6632 141.2412
L137.6632 134.5412
" />
<path d="M128.8897 134.4162 A0.2500 0.2500 0.0 0 0 128.4232 134.5412" />
<path d="M128.8897 134.4162 A0.2500 0.2500 0.0 0 0 129.1062 134.5412" />
<path d="M136.9802 134.5412 A0.2500 0.2500 0.0 0 0 137.1967 134.4162" />
<path d="M137.6632 134.5412 A0.2500 0.2500 0.0 0 0 137.1967 134.4162" />
</g> 
</svg>
